<svg width="251" height="239" viewBox="0 0 251 239" fill="none" xmlns="http://www.w3.org/2000/svg">
<path d="M208.49 83.44C208.49 102.57 202.02 120.22 191.13 134.31L173.91 103.82C176.54 97.54 177.99 90.66 177.99 83.44C177.99 56.67 158.03 34.48 132.2 30.99C129.86 30.66 127.47 30.5 125.05 30.5C122.63 30.5 120.25 30.66 117.92 30.98C92.0903 34.47 72.1104 56.67 72.1104 83.44C72.1104 90.66 73.5603 97.55 76.2003 103.83L58.9704 134.32C48.0904 120.23 41.6104 102.58 41.6104 83.44C41.6104 37.43 79.0404 0 125.05 0C171.06 0 208.49 37.43 208.49 83.44Z" fill="#C75E5E"/>
<path d="M232.8 208.06L158.73 76.9501C143.93 50.75 106.19 50.75 91.38 76.9501L17.31 208.06L0 238.7H76.89C87.65 238.7 97.92 234.22 105.24 226.33L122.19 208.06L125.06 204.97L127.92 208.06L156.35 238.7H250.11L232.8 208.06ZM131.19 90.5001L153.25 129.54L125.06 159.93L96.86 129.54L118.91 90.5101C121.61 85.7301 128.5 85.7301 131.2 90.5101L131.19 90.5001ZM80.4 208.06H52.5L81.04 157.54L104.16 182.45L80.4 208.06ZM169.71 208.06L145.95 182.45L169.07 157.54L197.61 208.06H169.71Z" fill="#5E7BC7"/>
</svg>
